<?xml version="1.0" encoding="UTF-8"?>
<svg data-name="—ÎÓÈ_1" viewBox="0 0 222.34 208.06" xmlns="http://www.w3.org/2000/svg" xmlns:xlink="http://www.w3.org/1999/xlink">
<defs>
<style>.cls-1,.cls-2{fill:#172f78;}.cls-1,.cls-10,.cls-3{opacity:0.4;}.cls-2,.cls-4{opacity:0.8;}.cls-3,.cls-4,.cls-5,.cls-6{fill:#03a7d3;}.cls-6{opacity:0.7;}.cls-7{fill:url(#b);}.cls-8{fill:url(#a);}.cls-9{fill:#fff;}.cls-10{fill:#06033e;}.cls-11{fill:url(#d);}.cls-12{fill:url(#g);}.cls-13{fill:url(#c);}.cls-14{fill:url(#f);}.cls-15{fill:url(#e);}.cls-16{opacity:0.3;}.cls-17{opacity:0.5;}</style>
<linearGradient id="b" x1="111.6" x2="183.42" y1="208.97" y2="208.97" gradientUnits="userSpaceOnUse">
<stop stop-color="#01c8ef" offset="0"/>
<stop stop-color="#04b1dd" offset=".13"/>
<stop stop-color="#0e6ba7" offset=".55"/>
<stop stop-color="#154085" offset=".85"/>
<stop stop-color="#172f78" offset="1"/>
</linearGradient>
<radialGradient id="a" cx="98.86" cy="155.12" r="160.39" gradientUnits="userSpaceOnUse">
<stop stop-color="#01c8ef" offset="0"/>
<stop stop-color="#03bae4" offset=".14"/>
<stop stop-color="#0895c8" offset=".4"/>
<stop stop-color="#115a9a" offset=".76"/>
<stop stop-color="#172f78" offset="1"/>
</radialGradient>
<linearGradient id="d" x1="111.6" x2="183.42" y1="170.83" y2="170.83" xlink:href="#b"/>
<radialGradient id="g" cx="98.86" cy="116.98" r="160.39" xlink:href="#a"/>
<linearGradient id="c" x1="111.6" x2="183.42" y1="132.7" y2="132.7" xlink:href="#b"/>
<radialGradient id="f" cx="98.86" cy="78.84" r="160.39" xlink:href="#a"/>
<radialGradient id="e" cx="113.01" cy="88.51" r="110.27" xlink:href="#a"/>
</defs>
<title>illu120</title>
<path class="cls-1" transform="translate(-58.37 -72.45)" d="m146 154.65a1.28 1.28 0 1 1-1.28-1.28 1.27 1.27 0 0 1 1.28 1.28z"/>
<path class="cls-1" transform="translate(-58.37 -72.45)" d="m164.66 135.8a5.06 5.06 0 1 1-5-5.05 5.05 5.05 0 0 1 5 5.05z"/>
<path class="cls-2" transform="translate(-58.37 -72.45)" d="m161.71 135.8a2.1 2.1 0 1 1-2.1-2.1 2.1 2.1 0 0 1 2.1 2.1z"/>
<circle class="cls-3" cx="81.27" cy="55.86" r="2.58"/>
<circle class="cls-4" cx="81.27" cy="55.86" r="1.27"/>
<path class="cls-3" transform="translate(-58.37 -72.45)" d="M120.26,218.54a.79.79,0,1,1-.79-.78A.78.78,0,0,1,120.26,218.54Z"/>
<path class="cls-5" transform="translate(-58.37 -72.45)" d="M106.43,116.75c-4.66,0-7.3-2-8.78-3.94C93.41,107.22,95,97.39,98.56,91A22.65,22.65,0,0,1,111.27,80.2h0c18.06-5.24,38.88-7.94,60.21-7.74,2.88,0,5.78.1,8.64.23,9.72.88,17.53,6.8,19.92,15.08a15.22,15.22,0,0,1-5.15,16.71c-5.46,4.18-12,4.15-14.79,4.12s-5.76-.2-8.63-.23c-21.25-.15-42,2.49-60,7.71A21,21,0,0,1,106.43,116.75Zm5.06-35.83A21.83,21.83,0,0,0,99.22,91.36c-3.49,6.19-5,15.66-1,21,2.59,3.41,7.1,4.44,13,3,18-5.24,38.87-7.93,60.19-7.74,2.88,0,5.78.1,8.64.23,2.7,0,9.06.06,14.31-4A14.48,14.48,0,0,0,199.32,88c-2.3-8-9.86-13.69-19.25-14.54-2.83-.13-5.73-.2-8.6-.23C150.21,73.06,129.48,75.71,111.49,80.92Z"/>
<path class="cls-5" transform="translate(-58.37 -72.45)" d="M168.55,252.23a12.94,12.94,0,0,1-6.31-1.51l-42.4-24.48c-1.75-1-2.72-2.39-2.72-3.87s1-2.85,2.72-3.87L162,194a13.94,13.94,0,0,1,12.61,0L217,218.46c1.76,1,2.73,2.39,2.73,3.87s-1,2.85-2.73,3.87l-42.17,24.52A13,13,0,0,1,168.55,252.23Zm-.23-59a12.1,12.1,0,0,0-5.91,1.41l-42.17,24.53c-1.51.87-2.33,2-2.33,3.18s.82,2.32,2.33,3.19L162.64,250a13.09,13.09,0,0,0,11.82,0l42.17-24.53c1.51-.86,2.34-2,2.34-3.18s-.83-2.32-2.34-3.19l-42.39-24.48A12.11,12.11,0,0,0,168.32,193.25Z"/>
<path class="cls-6" transform="translate(-58.37 -72.45)" d="m168.55 266.37a12.94 12.94 0 0 1-6.31-1.51l-42.4-24.48c-1.75-1-2.72-2.39-2.72-3.87s1-2.85 2.72-3.86l42.16-24.53a13.94 13.94 0 0 1 12.61 0l42.39 24.48c1.76 1 2.73 2.39 2.73 3.87s-1 2.85-2.73 3.87l-42.17 24.52a13 13 0 0 1-6.28 1.51zm-0.23-59a12 12 0 0 0-5.91 1.42l-42.17 24.52c-1.51 0.87-2.33 2-2.33 3.18s0.82 2.32 2.33 3.19l42.4 24.48a13.09 13.09 0 0 0 11.82 0l42.17-24.53c1.51-0.86 2.34-2 2.34-3.18s-0.83-2.32-2.34-3.19l-42.39-24.47a12 12 0 0 0-5.92-1.4z"/>
<path class="cls-3" transform="translate(-58.37 -72.45)" d="M168.55,280.51a12.94,12.94,0,0,1-6.31-1.51l-42.4-24.48c-1.75-1-2.72-2.39-2.72-3.87s1-2.85,2.72-3.86L162,222.26a14,14,0,0,1,12.61,0L217,246.74c1.76,1,2.73,2.39,2.73,3.87s-1,2.85-2.73,3.87L174.86,279A13,13,0,0,1,168.55,280.51Zm-.23-59a12,12,0,0,0-5.91,1.42l-42.17,24.52c-1.51.87-2.33,2-2.33,3.18s.82,2.32,2.33,3.19l42.4,24.48a13.09,13.09,0,0,0,11.82,0l42.17-24.52c1.51-.87,2.34-2,2.34-3.19s-.83-2.32-2.34-3.19L174.24,223A12,12,0,0,0,168.32,221.53Z"/>
<path class="cls-7" transform="translate(-58.37 -72.45)" d="m219.57 209v-20.38l-25.68 3.43-19.24-11.11a13.49 13.49 0 0 0-12.22 0l-3 1.91-41.71 5.56v20.7a4.34 4.34 0 0 0 2.51 3.42l42.42 24.47a13.47 13.47 0 0 0 12.21 0l42.14-24.53a4.32 4.32 0 0 0 2.51-3.4z"/>
<path class="cls-8" transform="translate(-58.37 -72.45)" d="m217 184.94-42.4-24.48a13.56 13.56 0 0 0-12.22 0l-42.13 24.54c-3.37 1.94-3.37 5.1 0 7l42.4 24.48a13.47 13.47 0 0 0 12.21 0l42.14-24.48c3.41-1.95 3.41-5.11 0-7.06z"/>
<path class="cls-9" transform="translate(-58.37 -72.45)" d="M217,190.76l-42.18,24.53a13.54,13.54,0,0,1-12.21,0l-42.4-24.48a4.69,4.69,0,0,1-2.46-2.91c-.31,1.47.5,3,2.46,4.14l42.4,24.48a13.47,13.47,0,0,0,12.21,0L217,192c2-1.14,2.77-2.67,2.46-4.15A4.68,4.68,0,0,1,217,190.76Z"/>
<polygon class="cls-9" points="122.2 149.5 120.19 150.66 120.19 148.34 122.2 147.18"/>
<polygon class="cls-9" points="126.4 147.07 124.39 148.23 124.39 145.91 126.4 144.75"/>
<polygon class="cls-9" points="130.6 144.65 128.59 145.81 128.59 143.49 130.6 142.33"/>
<polygon class="cls-9" points="127.16 151.32 125.16 152.48 125.16 150.17 127.16 149.01"/>
<polygon class="cls-9" points="130.86 149.19 128.85 150.35 128.85 148.03 130.86 146.87"/>
<polygon class="cls-9" points="144.06 136.87 142.06 138.03 142.06 135.71 144.06 134.55"/>
<polygon class="cls-9" points="155.63 130.19 153.63 131.35 153.63 129.03 155.63 127.88"/>
<polygon class="cls-9" points="134.8 142.22 132.79 143.38 132.79 141.06 134.8 139.91"/>
<path class="cls-10" transform="translate(-58.37 -72.45)" d="M166.25,206.18l-28.53-16.47c-1.16-.67-1-1.84.32-2.61L165.92,171a5,5,0,0,1,4.52-.18L199,187.29c1.16.66,1,1.83-.33,2.61L170.77,206A5,5,0,0,1,166.25,206.18Z"/>
<path class="cls-9" transform="translate(-58.37 -72.45)" d="m155 224-23.54-13.59a2.42 2.42 0 0 1-1-1.94v-1.75c0-0.75 0.45-1.09 1-0.77l23.54 13.59a2.46 2.46 0 0 1 1 2v1.75c0 0.71-0.42 1.04-1 0.71z"/>
<path class="cls-11" transform="translate(-58.37 -72.45)" d="m219.57 170.81v-20.32l-25.68 3.42-19.24-11.1a13.49 13.49 0 0 0-12.22 0l-3 1.9-41.71 5.56v20.73a4.32 4.32 0 0 0 2.51 3.41l42.4 24.48a13.47 13.47 0 0 0 12.21 0l42.16-24.55a4.34 4.34 0 0 0 2.51-3.41z"/>
<path class="cls-12" transform="translate(-58.37 -72.45)" d="m217 146.81-42.4-24.48a13.49 13.49 0 0 0-12.22 0l-42.17 24.52c-3.37 2-3.37 5.11 0 7.05l42.4 24.48a13.47 13.47 0 0 0 12.21 0l42.18-24.52c3.41-1.95 3.41-5.11 0-7.05z"/>
<path class="cls-10" transform="translate(-58.37 -72.45)" d="m196.84 148.29-24.7-14.29a7.9 7.9 0 0 0-7.12 0l-24.57 14.29c-2 1.14-2 3 0 4.11l24.7 14.27a7.9 7.9 0 0 0 7.12 0l24.57-14.29c1.97-1.12 1.97-2.96 0-4.09z"/>
<path class="cls-9" transform="translate(-58.37 -72.45)" d="M217,152.63l-42.18,24.52a13.47,13.47,0,0,1-12.21,0l-42.4-24.48a4.65,4.65,0,0,1-2.46-2.91c-.31,1.48.5,3,2.46,4.14l42.4,24.48a13.47,13.47,0,0,0,12.21,0L217,153.86c2-1.13,2.77-2.67,2.46-4.14A4.73,4.73,0,0,1,217,152.63Z"/>
<polygon class="cls-9" points="122.2 111.36 120.19 112.52 120.19 110.2 122.2 109.04"/>
<polygon class="cls-9" points="126.4 108.94 124.39 110.09 124.39 107.78 126.4 106.62"/>
<polygon class="cls-9" points="130.6 106.51 128.59 107.67 128.59 105.35 130.6 104.19"/>
<polygon class="cls-9" points="127.16 113.19 125.16 114.35 125.16 112.03 127.16 110.87"/>
<polygon class="cls-9" points="130.86 111.06 128.85 112.21 128.85 109.9 130.86 108.74"/>
<polygon class="cls-9" points="144.06 98.73 142.06 99.89 142.06 97.58 144.06 96.42"/>
<polygon class="cls-9" points="155.63 92.06 153.63 93.22 153.63 90.9 155.63 89.74"/>
<polygon class="cls-9" points="134.8 104.09 132.79 105.25 132.79 102.93 134.8 101.77"/>
<path class="cls-13" transform="translate(-58.37 -72.45)" d="m219.57 132.68v-20.33l-25.68 3.43-19.24-11.11a13.49 13.49 0 0 0-12.22 0l-3 1.9-41.71 5.57v20.7a4.34 4.34 0 0 0 2.51 3.42l42.4 24.48a13.54 13.54 0 0 0 12.21 0l42.16-24.54a4.34 4.34 0 0 0 2.51-3.4z"/>
<path class="cls-14" transform="translate(-58.37 -72.45)" d="m217 108.67-42.4-24.48a13.49 13.49 0 0 0-12.22 0l-42.17 24.52c-3.37 2-3.37 5.11 0 7.06l42.4 24.48a13.54 13.54 0 0 0 12.21 0l42.18-24.53c3.41-1.94 3.41-5.1 0-7.05z"/>
<path class="cls-15" transform="translate(-58.37 -72.45)" d="m217 108.67-42.4-24.48a13.49 13.49 0 0 0-12.22 0l-42.17 24.52c-3.37 2-3.37 5.11 0 7.06l42.4 24.48a13.54 13.54 0 0 0 12.21 0l42.18-24.53c3.41-1.94 3.41-5.1 0-7.05z"/>
<path class="cls-9" transform="translate(-58.37 -72.45)" d="m168.72 132.32a8.77 8.77 0 0 1-4.32-1l-28.1-16.22a3 3 0 0 1 0-5.63l27.95-16.25a9.41 9.41 0 0 1 8.64 0l28.11 16.17a3 3 0 0 1 0 5.63l-28 16.25a8.8 8.8 0 0 1-4.28 1.05zm-0.15-39.1a7.7 7.7 0 0 0-3.77 0.9l-27.94 16.25a1.93 1.93 0 0 0 0 3.72l28.14 16.22a8.32 8.32 0 0 0 7.54 0l27.94-16.25a2.33 2.33 0 0 0 1.41-1.86 2.36 2.36 0 0 0-1.41-1.86l-28.14-16.22a7.7 7.7 0 0 0-3.77-0.9z"/>
<path class="cls-9" transform="translate(-58.37 -72.45)" d="M217,114.49,174.86,139a13.47,13.47,0,0,1-12.21,0l-42.4-24.47a4.69,4.69,0,0,1-2.46-2.91c-.31,1.47.5,3,2.46,4.14l42.4,24.48a13.54,13.54,0,0,0,12.21,0L217,115.72c2-1.13,2.77-2.67,2.46-4.14A4.73,4.73,0,0,1,217,114.49Z"/>
<polygon class="cls-9" points="122.2 73.22 120.19 74.38 120.19 72.06 122.2 70.91"/>
<polygon class="cls-9" points="126.4 70.8 124.39 71.96 124.39 69.64 126.4 68.48"/>
<polygon class="cls-9" points="130.6 68.38 128.59 69.53 128.59 67.22 130.6 66.06"/>
<polygon class="cls-9" points="127.16 75.05 125.16 76.21 125.16 73.89 127.16 72.74"/>
<polygon class="cls-9" points="130.86 72.92 128.85 74.08 128.85 71.76 130.86 70.6"/>
<polygon class="cls-9" points="144.06 60.6 142.06 61.76 142.06 59.44 144.06 58.28"/>
<polygon class="cls-9" points="155.63 53.92 153.63 55.08 153.63 52.76 155.63 51.6"/>
<polygon class="cls-9" points="134.8 65.95 132.79 67.11 132.79 64.79 134.8 63.63"/>
<g class="cls-16">
<path class="cls-5" transform="translate(-58.37 -72.45)" d="M279.89,167.35l-.31-.61c-.27-.56-.61-1.36-1-2.45-3.72-10.89-14.62-20.76-31.51-28.56-11.74-6.67-14.58-16.3-15.26-20.13h0c-.8-4.53.11-10.94,4-14.33,2.85-2.48,6.73-3,11.54-1.4,17.12,7.91,28.15,17.93,31.94,29,.8,3.13,1.42,5.58,1.43,16.63v18.74c0,1.65,0,1.75-.47,2.51Zm-47.34-51.88c.66,3.72,3.42,13.1,14.86,19.59,17,7.88,28.08,17.9,31.87,29,.24.64.45,1.17.63,1.61a9.05,9.05,0,0,0,0-1.4V145.51c0-11-.62-13.37-1.4-16.41-3.71-10.86-14.61-20.73-31.5-28.53-4.5-1.45-8.13-1-10.77,1.27-3.66,3.19-4.51,9.3-3.74,13.63Z"/>
<path class="cls-5" transform="translate(-58.37 -72.45)" d="m59.12 172.53h-0.75v-35.19-0.94c0.22-5.83 2.44-11.53 6.6-17l0.16-0.16c0.8-0.79 1.89-1.88 3-2 1.51-0.22 2.86 0.55 3.9 2.21 3.46 5.53 3.15 21.4-6.47 35.59-5.56 7.62-5.97 11.96-6.44 17.49zm9.53-54.53a2.43 2.43 0 0 0-0.38 0 5.88 5.88 0 0 0-2.6 1.82l-0.13 0.13c-4 5.25-6.19 10.81-6.4 16.48v0.91 29.24c0.72-3.42 2.2-7 5.85-12 9.44-13.93 9.81-29.4 6.45-34.76a3.45 3.45 0 0 0-2.79-1.82z"/>
</g>
<path class="cls-5" transform="translate(-58.37 -72.45)" d="M67.13,190.82c-.93,0-2.15-.49-3.48-2.31-4.57-6.25-5-12.34-5.28-16V137.34h.75a27.5,27.5,0,0,0,5.15,15.58c7.5,12.41,8.38,24.65,7.73,29.93h0c-.54,4.33-2.16,7.36-4.22,7.89A2.57,2.57,0,0,1,67.13,190.82Zm-8-47.35v29c.26,3.53.69,9.49,5.14,15.57.79,1.08,2,2.29,3.34,1.94,1.72-.45,3.16-3.29,3.65-7.25h0c.64-5.19-.23-17.22-7.62-29.43A30.9,30.9,0,0,1,59.12,143.47Z"/>
<path class="cls-5" transform="translate(-58.37 -72.45)" d="m169.53 224.87h-1.93c-21.4-0.17-42.08-3.21-59.79-8.78-2.22-0.83-8-3-12.36-11-3.56-6.6-5-16.56-0.69-22 1.9-2.41 5.75-4.87 13.26-2.86 17.66 5.56 38.25 8.59 59.59 8.76 2.8 0 5.62 0 8.39-0.08 8.56 0 13.54 3 16.21 5.53a16 16 0 0 1 3.57 17c-2.75 7.64-10.13 12.62-19.75 13.33-2.14 0.07-4.32 0.1-6.5 0.1zm-66.62-44.66a9.13 9.13 0 0 0-7.56 3.3c-4.12 5.23-2.69 14.83 0.76 21.21 4.17 7.73 9.82 9.85 12 10.64 17.62 5.55 38.21 8.58 59.55 8.75 2.81 0 5.63 0 8.39-0.08 9.29-0.68 16.42-5.48 19.07-12.84a15.26 15.26 0 0 0-3.38-16.25c-2.54-2.43-7.27-5.32-15.4-5.32h-0.34c-2.77 0.08-5.6 0.11-8.41 0.08-21.41-0.17-42.08-3.21-59.79-8.78a18.82 18.82 0 0 0-4.89-0.71z"/>
<path class="cls-5" transform="translate(-58.37 -72.45)" d="M239.4,212a10.23,10.23,0,0,1-8.25-3.68c-3.84-4.7-3.93-13.21-.22-20.25a30.18,30.18,0,0,1,13.14-12.69c17.53-7.52,29.2-17.2,33.78-28a18.34,18.34,0,0,1,1.33-2.45l.09-.14.85-.11.1.29c.31.85.43,1.21.47,5.42v10.82c-.09,15.26-1,18.05-2.14,21.59-4.67,11-16.48,20.84-34.15,28.42A17.52,17.52,0,0,1,239.4,212Zm40.24-66.42a19.8,19.8,0,0,0-1.1,2.09c-4.66,11-16.47,20.8-34.14,28.39a29.44,29.44,0,0,0-12.8,12.37c-3.58,6.78-3.53,14.94.13,19.41,1.91,2.33,5.6,4.68,12.41,2.67,17.46-7.49,29.13-17.17,33.71-28,1.11-3.44,2-6.18,2.09-21.33V150.4C279.91,147,279.83,146.22,279.64,145.6Z"/>
<path class="cls-5" transform="translate(-58.37 -72.45)" d="M246,265.79a5.73,5.73,0,0,1-2.83-.69l-18.27-10.54a2.24,2.24,0,0,1-1.28-1.87,2.21,2.21,0,0,1,1.28-1.86l18.17-10.56a6.15,6.15,0,0,1,5.66,0L267,250.81a2,2,0,0,1,0,3.73L248.87,265.1A5.78,5.78,0,0,1,246,265.79Zm-.1-25.42a4.93,4.93,0,0,0-2.43.58l-18.17,10.57a1.22,1.22,0,0,0,0,2.35l18.26,10.55a5.42,5.42,0,0,0,4.87,0l18.17-10.57a1.22,1.22,0,0,0,0-2.35L248.37,241A4.93,4.93,0,0,0,245.94,240.37Z"/>
<path class="cls-5" transform="translate(-58.37 -72.45)" d="M91.14,265.79a5.76,5.76,0,0,1-2.83-.69L70.05,254.56a2.25,2.25,0,0,1-1.29-1.87,2.22,2.22,0,0,1,1.29-1.86l18.16-10.56a6.15,6.15,0,0,1,5.66,0l18.27,10.54a2,2,0,0,1,0,3.73L94,265.1A5.73,5.73,0,0,1,91.14,265.79ZM91,240.37a4.93,4.93,0,0,0-2.43.58L70.44,251.52a1.22,1.22,0,0,0,0,2.35l18.27,10.55a5.4,5.4,0,0,0,4.86,0l18.17-10.57a1.22,1.22,0,0,0,0-2.35L93.48,241A5,5,0,0,0,91,240.37Z"/>
<g class="cls-17">
<path class="cls-5" transform="translate(-58.37 -72.45)" d="M246,257.55a5.83,5.83,0,0,1-2.83-.68l-18.27-10.55a2,2,0,0,1,0-3.72L243.11,232a6.15,6.15,0,0,1,5.66,0L267,242.58a2,2,0,0,1,0,3.72l-18.16,10.57A5.89,5.89,0,0,1,246,257.55Zm-.1-25.41a4.93,4.93,0,0,0-2.43.58l-18.17,10.56a1.23,1.23,0,0,0,0,2.36l18.26,10.54a5.36,5.36,0,0,0,4.87,0l18.17-10.56a1.49,1.49,0,0,0,.89-1.18,1.52,1.52,0,0,0-.89-1.18l-18.27-10.54A4.93,4.93,0,0,0,245.94,232.14Z"/>
<path class="cls-5" transform="translate(-58.37 -72.45)" d="M91.14,257.55a5.86,5.86,0,0,1-2.83-.68L70.05,246.32a2,2,0,0,1,0-3.72L88.21,232a6.15,6.15,0,0,1,5.66,0l18.27,10.54a2,2,0,0,1,0,3.72L94,256.87A5.83,5.83,0,0,1,91.14,257.55ZM91,232.14a4.93,4.93,0,0,0-2.43.58L70.44,243.28a1.23,1.23,0,0,0,0,2.36l18.27,10.54a5.34,5.34,0,0,0,4.86,0l18.17-10.56a1.47,1.47,0,0,0,.89-1.18,1.49,1.49,0,0,0-.89-1.18L93.48,232.72A5,5,0,0,0,91,232.14Z"/>
</g>
</svg>
